<svg xmlns="http://www.w3.org/2000/svg" viewBox="0 0 485.17 318.34"><defs><style>.a{fill:#fff;}.b{fill:#47535b;}.c{fill:#2773bb;}</style></defs><title>icon</title><path class="a" d="M263.21,318.34h-3.37c6.59-9.07,12.58-17.35,18.63-25.59,1.32-1.81,3.39-1,5.12-1,38-.08,76,.69,114-.44,25.71-.77,47.62-19.16,56.05-41.66a66.89,66.89,0,0,0,4.34-17.5c2.43-27.76-10.2-53.32-37.73-65.58-6.21-2.77-12.9-4.81-19.93-4.88-3.55,0-5.26-1.76-5.67-5.49-1.92-17.57-8.73-32.66-23-43.74-9.69-7.52-20.81-11.2-32.88-13-8.55-1.29-16.74-.63-25.1.94-7.49,1.41-8.39.3-9.87-7.21-3.41-17.27-13.63-30.42-26.12-42.08a91.91,91.91,0,0,0-51.9-24.34c-34.05-4.37-62.72,7-85.79,32.23-15.47,16.88-24.07,37-27.24,59.7A97.72,97.72,0,0,0,112,135c.13,4.68-1.82,5.75-5.93,5.61-10.27-.37-20.44.17-30.22,3.92-22.67,8.7-38,24.56-46.09,47.36-3.17,8.92-5.63,18.24-4.79,27.65,2.68,29.95,16.65,52.63,44.42,65.85a65.52,65.52,0,0,0,29.17,6.33c31.32-.21,62.65,0,94-.15,4.31,0,7.47.86,10.3,4.33,6,7.34,12.37,14.36,19.37,22.41h-3.94"/><path class="b" d="M222.78,318.19h-3.94c-38.82,0-77.65.41-116.46-.14-37.19-.53-66.67-16.42-87.07-47.69A93.78,93.78,0,0,1,.17,212.6c2.05-35.55,18.52-62.86,47.75-82.83a91.74,91.74,0,0,1,33.64-13.83c4.88-1,6.17-3.48,6.86-7.32,7.13-39.56,27.86-70,61.85-91.24A111.18,111.18,0,0,1,201.9.4C252.66-3.17,291.7,17,318.4,59.71c5.87,9.4,11.29,12.42,22.09,13.32,36.13,3,65.75,27.37,77.53,61.57,1.21,3.53,3,5,6.55,6.17,29.24,9.33,47.91,29.48,56.48,58.43,9,30.4,3.15,58.59-16.48,83.56-14.92,19-35.05,29.65-58.38,34.56-4.18.88-8.62.78-12.94.78q-64.72.12-129.46.1h-3.37c6.59-9.07,12.58-17.35,18.63-25.59,1.32-1.81,3.39-1,5.12-1,38-.09,76,.69,114-.45,25.7-.76,47.62-19.16,56.05-41.65a66.87,66.87,0,0,0,4.33-17.5c2.44-27.76-10.19-53.33-37.72-65.59-6.21-2.76-12.9-4.8-19.93-4.87-3.55,0-5.26-1.76-5.67-5.5-1.92-17.56-8.73-32.66-23-43.74-9.69-7.52-20.81-11.2-32.89-13-8.54-1.28-16.73-.62-25.09,1-7.49,1.4-8.39.29-9.87-7.22-3.41-17.26-13.63-30.42-26.12-42.07A91.78,91.78,0,0,0,226.3,26.6c-34.05-4.38-62.72,7-85.79,32.22-15.47,16.88-24.07,37-27.24,59.71a97.67,97.67,0,0,0-.69,16.36c.13,4.67-1.82,5.75-5.93,5.6-10.27-.36-20.44.17-30.22,3.92-22.67,8.71-38,24.57-46.09,47.37-3.17,8.91-5.63,18.23-4.79,27.64,2.68,30,16.65,52.64,44.42,65.85a65.53,65.53,0,0,0,29.17,6.34c31.32-.22,62.65,0,94-.16,4.31,0,7.47.86,10.29,4.33,6,7.35,12.38,14.36,19.38,22.41Z"/><path class="c" d="M270,156.07c0,12.32.12,24.65-.07,37-.06,3.56,1.18,4.54,4.59,4.48,11.49-.2,23-.12,34.46-.14,1.66,0,3.34-.18,4.9.61,4,2,4.73,4.72,1.77,8.87-11,15.44-22.18,30.78-33.28,46.16Q267.71,273.38,253,293.76c-5,6.89-13.5,7.14-18.88.26-14-17.95-28-36-41.93-54q-11.86-15.35-23.7-30.71c-1.79-2.34-4.12-4.64-2.36-8s5-4.62,8.75-4.6c10.82.05,21.64-.19,32.45.17,4.37.14,5.24-1.39,5.22-5.37-.13-24,0-47.95,0-71.93,0-5.86,1.81-7.87,7.61-7.94,13.32-.16,26.64-.29,40-.2,8.79.06,9.85,1.35,9.85,10.24q0,17.24,0,34.46Z"/><path class="b" d="M222.78,318.19"/></svg>