<?xml version="1.0" encoding="UTF-8"?>
<svg id="Calque_1" data-name="Calque 1" xmlns="http://www.w3.org/2000/svg" viewBox="0 0 672.841 519.432">
  <defs>
    <style>
      .cls-1 {
        fill: #47535b;
      }

      .cls-2 {
        fill: #2773bb;
      }
    </style>
  </defs>
  <path class="cls-1" d="m295.186,318.193c-2.059,0-3,0-3.942,0-38.822-.007-77.65.411-116.465-.143-37.182-.531-66.664-16.415-87.071-47.692-11.351-17.398-16.33-36.92-15.131-57.753,2.045-35.552,18.516-62.862,47.748-82.834,10.265-7.013,21.67-11.368,33.642-13.835,4.877-1.005,6.164-3.478,6.855-7.311,7.131-39.563,27.859-70.019,61.848-91.243C238.383,7.57,255.619,1.721,274.301.405c50.758-3.575,89.804,16.547,116.502,59.306,5.869,9.4,11.293,12.42,22.088,13.316,36.127,2.997,65.75,27.371,77.527,61.573,1.215,3.53,3.019,5.044,6.556,6.172,29.236,9.324,47.907,29.474,56.474,58.43,8.994,30.4,3.157,58.591-16.474,83.554-14.926,18.979-35.055,29.653-58.38,34.565-4.184.881-8.619.776-12.938.783-43.154.074-86.308.076-129.463.098-.766,0-1.531,0-3.371,0,6.594-9.07,12.583-17.349,18.627-25.589,1.327-1.81,3.395-1.02,5.125-1.024,37.988-.088,76,.69,113.956-.445,25.707-.768,47.626-19.161,56.054-41.657,2.113-5.64,3.808-11.51,4.333-17.499,2.431-27.762-10.198-53.328-37.729-65.588-6.205-2.763-12.895-4.801-19.926-4.873-3.546-.036-5.258-1.76-5.666-5.496-1.92-17.565-8.73-32.659-23.023-43.741-9.694-7.516-20.811-11.199-32.886-13.01-8.544-1.281-16.735-.621-25.091.946-7.494,1.405-8.395.297-9.875-7.211-3.405-17.267-13.63-30.422-26.116-42.077-14.662-13.687-32.23-21.813-51.901-24.34-34.052-4.375-62.721,7.037-85.795,32.222-15.47,16.885-24.067,37.043-27.236,59.706-.768,5.49-.84,10.934-.689,16.363.13,4.672-1.826,5.75-5.93,5.604-10.273-.365-20.442.168-30.221,3.922-22.67,8.704-37.983,24.564-46.091,47.363-3.17,8.915-5.632,18.236-4.789,27.647,2.683,29.951,16.647,52.634,44.42,65.85,9.24,4.397,18.869,6.404,29.166,6.333,31.323-.215,62.649.015,93.972-.156,4.313-.024,7.467.858,10.296,4.331,5.984,7.345,12.373,14.359,19.379,22.409Z"/>
  <path class="cls-2" d="m342.423,156.072c0,12.321.115,24.644-.072,36.962-.054,3.56,1.181,4.532,4.595,4.473,11.484-.196,22.974-.118,34.461-.138,1.656-.003,3.332-.179,4.899.612,4.02,2.027,4.727,4.721,1.766,8.868-11.023,15.438-22.183,30.777-33.28,46.162-9.793,13.578-19.576,27.163-29.354,40.752-4.959,6.892-13.493,7.14-18.876.262-14.051-17.954-27.966-36.013-41.925-54.038-7.918-10.224-15.839-20.446-23.705-30.709-1.79-2.335-4.115-4.642-2.355-8.038,1.835-3.541,4.975-4.62,8.741-4.602,10.82.05,21.647-.183,32.456.171,4.365.143,5.237-1.385,5.216-5.369-.128-23.975-.027-47.951.011-71.927.009-5.866,1.81-7.874,7.611-7.945,13.318-.162,26.638-.289,39.955-.198,8.785.06,9.845,1.355,9.841,10.238-.005,11.488-.001,22.977-.001,34.465h.016Z"/>
  <path class="cls-1" d="m372.724,361.254c15.616.278,28.322,3.235,36.846,15.651.564.821,1.087,1.673,1.591,2.533,7.34,12.524,5.898,15.462-8.313,16.992-.99.107-2.004.215-2.946.517-3.329,1.066-4.795.843-5.642-3.526-1.761-9.085-9.194-12.712-17.463-13.851-6.651-.916-12.892,1.33-17.4,6.57-5.205,6.051-3.459,14.741,3.668,19.375,6.643,4.32,14.402,5.68,21.848,7.772,6.547,1.84,12.792,4.228,18.696,7.635,17.778,10.26,18.921,38.667,4.261,51.595-18.973,16.732-51.191,14.997-67.657-4.18-3.994-4.652-5.898-10.265-8.044-15.838-.936-2.429.522-2.546,1.938-2.908,3.034-.774,6.077-1.531,9.148-2.137,7.913-1.561,7.742-1.426,11.797,5.78,7.209,12.811,24.104,16.543,36.649,6.898,4.549-3.498,6.913-8.564,5.887-13.968-1.109-5.84-5.675-9.597-11.309-11.542-9.208-3.179-18.571-5.927-27.702-9.307-9.891-3.661-18.185-9.768-21.375-20.191-6.198-20.253,4.096-38.063,25.905-42.793,3.682-.798,7.457-1.513,9.617-1.077Z"/>
  <path class="cls-1" d="m.137,423.239c0-18.158.092-36.317-.079-54.473-.033-3.54.57-4.862,4.546-4.822,21.654.216,43.312.183,64.967.002,3.546-.03,4.619.939,4.329,4.408-.304,3.639-.305,7.345.01,10.983.296,3.419-.625,4.476-4.25,4.419-14.823-.235-29.653.01-44.476-.18-3.411-.044-4.616.695-4.474,4.321.293,7.485.273,14.996-.005,22.483-.127,3.404,1.019,4.108,4.19,4.065,12.658-.171,25.323.069,37.98-.156,3.584-.064,5.249.562,4.76,4.543-.544,4.427,1.792,10.221-.852,13.025-2.669,2.83-8.491.805-12.922.871-9.827.146-19.659.168-29.484-.005-2.87-.05-3.709.782-3.64,3.623.181,7.492.231,14.997-.015,22.485-.106,3.228,1.044,3.813,3.985,3.787,15.325-.138,30.653.051,45.977-.148,3.488-.045,4.703.832,4.345,4.369-.512,5.068,2.099,11.89-1.053,14.774-2.753,2.519-9.471.78-14.437.79-18.158.034-36.318-.133-54.473.12-4.303.06-5.112-1.303-5.062-5.309.225-17.989.098-35.982.098-53.973h.037Z"/>
  <path class="cls-1" d="m138.312,472.851c-6.45,8.938-15.7,10.469-24.955,11.483-14.262,1.562-28.554-11.867-28.598-25.973-.021-6.592-.134-12.901,5.012-17.957,6.302-6.191,14.432-7.697,22.648-9.076,7.574-1.272,15.211-1.293,22.835-1.014,2.919.107,3.549-.84,3.602-3.566.13-6.764-3.172-12.786-8.595-14.902-8.154-3.181-17.381-1.645-21.223,5.257-3.326,5.974-7.416,5.014-12.214,4.152-1.114-.2-2.186-.757-3.298-.83-7.67-.5-7.835-.564-4.113-7.618,6.36-12.055,16.381-18.395,30.138-18.421,5.92-.011,11.869-.596,17.699,1.2,13.74,4.234,21.057,12.728,21.423,27.51.425,17.137.177,34.292.217,51.438.002.665-.261,1.425-.025,1.982,3.199,7.54-2.395,5.763-6.195,5.888-.333.011-.666.002-.999.002q-9.545.005-13.359-9.557Zm-9.63-30.381c-6.426.023-14.558,1.955-18.577,4.414-8.131,4.974-8.2,14.249-.147,19.124,9.974,6.038,25.601.342,28.459-11.41,2.265-9.311.28-12.111-9.237-12.127-.166,0-.332,0-.498,0Z"/>
  <path class="cls-1" d="m484.954,471.708c-7.232,9.369-16.177,11.82-25.57,12.621-11.566.986-24.658-7.799-29.116-18.829-5.613-13.886,2.857-27.763,17.489-31.478,11.385-2.89,22.657-4.05,34.228-3.69,2.288.071,2.734-.762,2.724-2.863-.034-7.67-4.19-14.064-10.822-16.277-7.521-2.509-15.856-.297-20.02,6.045-2.42,3.686-4.566,6.063-9.335,4.273-2.102-.789-4.525-.795-6.817-.996-6.487-.569-6.639-.61-3.718-6.568,6.299-12.848,16.607-19.633,31.029-19.545,6.404.039,12.748-.497,19.158,1.803,10.557,3.788,19.259,11.801,19.656,25.335.487,16.636.184,33.301-.061,49.949-.04,2.754,1.263,5.101,1.157,7.792-.086,2.189-.488,3.56-3.073,3.14-.812-.132-1.674-.107-2.494-.007-7.427.91-14.085.607-14.417-10.707Zm-10.169-29.263c-6.76-.146-13.23,1.102-19.226,4.284-3.796,2.015-6.049,5.104-5.977,9.62.071,4.44,2.257,7.572,5.96,9.721,10.584,6.144,25.613.025,28.151-11.873,2.72-12.748,1.634-11.409-8.908-11.752Z"/>
  <path class="cls-1" d="m642.68,444.473c-8.996,0-17.993.051-26.988-.035-2.334-.022-2.892.255-2.507,3.009,1.551,11.108,8.832,16.979,18.351,20.687,5.205,2.028,17.673-4.128,21.835-12.702,1.436-2.957,2.778-3.532,5.568-1.723,2.356,1.528,4.936,2.837,7.585,3.757,4.49,1.559,5.102,3.87,2.515,7.751-7.505,11.257-17.678,17.638-31.404,18.259-16.486.746-29.816-4.689-38.087-19.525-10.445-18.736-7.829-46.804,9.747-61.567,12.279-10.313,26.298-10.552,40.168-5.252,12.863,4.915,19.661,15.663,22.416,29.135,1.014,4.959.564,9.865.934,14.783.224,2.982-.952,3.527-3.646,3.479-8.827-.157-17.658-.059-26.487-.056Zm-9.466-14.082v-.043c5.651,0,11.302-.033,16.952.02,1.761.017,3.096-.329,2.602-2.449-2.572-11.053-10.435-18.346-20.563-17.764-9.43.542-16.173,9.26-18.386,18.364-.535,2.202,1.155,1.869,2.443,1.87,5.651.004,11.301.002,16.952.002Z"/>
  <path class="cls-1" d="m327.176,395.2c-6.567,19.082-13.288,37.624-20.115,56.143-5.15,13.968-9.921,28.092-15.333,41.972-4.052,10.394-10.153,19.077-20.942,23.579-5.305,2.214-10.799,2.71-16.472,2.49-2.254-.088-2.922-.953-2.691-3.027.129-1.153.055-2.33.056-3.497.003-3.333-.828-6.952.205-9.925,1.302-3.749,5.702-1.351,8.624-2.512,6.684-2.655,15.305-12.574,14.257-18.99-.933-5.711-3.641-11.151-5.726-16.65-8.727-23.01-17.515-45.997-26.506-69.583,6.883,0,13.162.157,19.427-.072,2.747-.1,2.895,1.695,3.307,3.384,4.925,20.178,13.921,38.95,20.36,60.076,2.376-7.468,4.202-13.77,6.341-19.947,4.318-12.465,9.515-24.71,11.978-37.711.941-4.966,2.709-6.325,7.512-5.844,5.085.509,10.26.114,15.718.114Z"/>
  <path class="cls-1" d="m205.319,394.5c11.024-1.094,20.38,1.564,27.424,10.347,2.346,2.925,4.313,6.439,3.96,9.851-.479,4.631-5.573,2.715-8.474,4.061-3.94,1.828-6.719,1.803-9.234-3.102-3.855-7.518-18.04-8.872-24.131-3.036-4.981,4.774-3.873,11.901,2.414,14.682,6.125,2.709,12.826,3.375,19.227,5.11,7.172,1.944,14.632,3.237,19.676,9.736,7.68,9.894,6.155,28.533-6.045,35.402-16.002,9.009-32.158,8.909-48.159.069-6.665-3.682-9.764-10.094-11.849-17.145-.519-1.755.04-1.9,1.437-2.163,2.59-.488,5.193-1.023,7.695-1.832,5.551-1.794,9.243-1.423,12.61,4.792,5.002,9.234,17.637,10.301,25.585,3.339,5.876-5.146,4.43-12.733-3.168-15.038-6.78-2.057-13.859-3.133-20.622-5.234-6.777-2.105-13.184-4.706-17.436-11.371-6.067-9.509-3.743-25.54,5.431-32.164,7.217-5.211,15.087-7.445,23.658-6.304Z"/>
  <path class="cls-1" d="m550.381,457.819c3.658-11.461,6.941-21.866,10.304-32.246,3.04-9.382,6.184-18.73,9.246-28.105.547-1.676,1.544-2.279,3.317-2.251,5.801.093,11.605.035,17.869.035-3.93,11.448-7.74,22.424-11.465,33.429-5.64,16.665-11.315,33.32-16.737,50.056-.971,2.996-2.379,3.809-5.298,3.66-4.486-.23-9.014-.338-13.485.011-3.672.287-5.196-1.157-6.329-4.516-8.407-24.94-16.997-49.818-25.54-74.712q-2.714-7.909,5.941-7.918c1.999-.003,4.041.26,5.989-.055,4.833-.78,6.823,1.301,8.175,5.909,3.585,12.217,7.822,24.242,11.728,36.367,2.067,6.415,3.985,12.877,6.285,20.337Z"/>
</svg>